<?xml version="1.0" encoding="UTF-8"?>
<svg id="Calque_2" data-name="Calque 2" xmlns="http://www.w3.org/2000/svg" viewBox="0 0 67.2 81.37">
  <defs>
    <style>
      .cls-1 {
        fill: #d05133;
      }
    </style>
  </defs>
  <g id="Calque_1-2" data-name="Calque 1">
    <path class="cls-1" d="M52.6,19.17c2.18,0,2.96.37,2.96,1.79,0,2.03-3.33,2.16-3.33,6.04v32.36c0,2.16-.73,2.9-2.54,2.9s-2.6-.99-2.6-2.1c0-1.6-.6-2.65-2-4.13l-24.27-24.53.06,22.87c0,3.88,3.33,3.88,3.33,6.1,0,1.42-.91,1.73-2.84,1.73h-5.93c-2.24,0-2.97-.43-2.97-1.79,0-2.03,3.27-2.16,3.27-6.04v-23.79c0-8.51-4.11-5.79-4.11-9.49,0-1.48.97-1.97,3.51-1.97h5.93c1.51,0,2.36.68,3.45,1.73l22.57,22.99v-16.83c0-3.88-3.33-3.88-3.33-6.1,0-1.42.91-1.73,2.84-1.73h5.99Z"/>
    <path class="cls-1" d="M33.6,81.37C15.07,81.37,0,63.12,0,40.69S15.07,0,33.6,0s33.6,18.25,33.6,40.69-15.07,40.68-33.6,40.68ZM33.6,3C16.73,3,3,19.91,3,40.69s13.73,37.68,30.6,37.68,30.6-16.91,30.6-37.68S50.47,3,33.6,3Z"/>
  </g>
</svg>