<svg width="366" height="341" viewBox="0 0 366 341" fill="none" xmlns="http://www.w3.org/2000/svg">
<g clip-path="url(#clip0_29_162)">
<path d="M51.6084 142.986C57.3667 139.846 62.4576 135.927 66.8786 131.229C71.2996 126.531 74.8265 121.024 77.4717 114.705C80.1144 108.389 81.437 101.34 81.437 93.5688C81.437 85.0453 80.0553 78.3147 77.2944 73.3772C74.531 68.4446 70.8439 64.8364 66.2259 62.5625C61.6079 60.2886 56.2831 59.1861 50.2464 59.2577C44.2073 59.3317 37.8751 60.1628 31.2473 61.756L0 69.2684V158.028L33.6166 149.946C39.8503 148.446 45.8476 146.128 51.6084 142.986ZM27.1071 125.811V88.0763L33.3802 86.567C39.2986 85.1439 44.0324 85.61 47.584 87.9629C51.1331 90.3157 52.9113 94.3654 52.9113 100.114C52.9113 107.03 51.1331 112.433 47.584 116.325C44.0324 120.22 38.9415 122.965 32.3137 124.558L27.1046 125.811H27.1071Z" fill="#D05033"/>
<path d="M98.7222 134.295L102.862 120.262L129.497 113.859L133.876 125.843L158.616 119.894L185.366 113.462L184.184 71.3722L184.657 71.2587L207.857 108.056L236.62 101.14V93.6108C237.637 94.104 238.701 94.5529 239.814 94.9574C242.499 95.934 245.358 96.6591 248.397 97.1351C251.434 97.6111 254.589 97.7665 257.867 97.6012C261.141 97.436 264.475 96.9477 267.869 96.1313C272.13 95.1078 276.312 93.4529 280.416 91.1741C284.519 88.8927 288.208 86.0417 291.484 82.6209C294.76 79.2027 297.402 75.2664 299.415 70.8123C301.427 66.3607 302.434 61.4577 302.434 56.1083C302.434 51.5111 301.525 47.8856 299.713 45.2294C297.895 42.5782 295.587 40.5163 292.789 39.0588C289.987 37.6012 286.93 36.6023 283.615 36.0622C280.302 35.5221 277.145 35.1102 274.145 34.8291C271.226 34.5282 269.116 34.2002 267.813 33.8425C266.512 33.4874 265.862 32.6415 265.862 31.3047C265.862 29.8841 266.493 28.7077 267.754 27.7779C269.017 26.8481 270.672 26.1378 272.726 25.6446C274.933 25.1143 277.421 25.1636 280.184 25.795C282.945 26.4264 285.272 27.7681 287.166 29.82L304.685 6.67876C300.346 3.46024 295.314 1.41075 289.595 0.530279C283.871 -0.350188 278.248 -0.125755 272.726 1.20111C268.621 2.18763 264.478 3.72907 260.296 5.82295C256.111 7.9193 252.345 10.6026 248.993 13.8803C245.639 17.158 242.895 20.9783 240.765 25.3412C238.634 29.7066 237.568 34.6515 237.568 40.1735C237.568 44.1097 238.159 47.3381 239.346 49.8562C240.528 52.3768 242.127 54.3991 244.139 55.9233C246.149 57.4499 248.459 58.5918 251.062 59.3465C253.666 60.1037 256.39 60.6413 259.229 60.9619C262.148 61.2678 264.574 61.5637 266.51 61.8498C268.443 62.1384 269.963 62.4664 271.069 62.8289C272.172 63.189 272.941 63.6132 273.377 64.0941C273.81 64.5775 274.027 65.236 274.027 66.0721C274.027 67.6629 273.377 68.9083 272.074 69.8061C270.773 70.7063 269.33 71.3475 267.754 71.7249C264.281 72.5585 260.907 72.4919 257.633 71.5251C254.358 70.5583 251.732 69.1821 249.762 67.399L236.625 85.6767V12.3833L209.875 18.8154L211.057 63.5392L210.584 63.6527L186.674 24.3942L158.621 31.1395V103.821L131.868 37.5716L101.922 44.7707L68.896 141.469L98.7271 134.297L98.7222 134.295ZM116.477 72.2329L123.226 92.5503L109.613 95.823L116.48 72.2354L116.477 72.2329Z" fill="#D05033"/>
<path d="M24.9767 195.77L25.5678 195.627L40.9587 242.074L60.8444 237.295L76.4693 183.52L77.1786 183.473L76.3511 233.566L103.81 226.963V185.882C104.163 191.429 105.305 196.367 107.244 200.69C109.611 205.97 112.864 210.183 117.009 213.322C121.152 216.464 126.065 218.479 131.747 219.37C137.429 220.26 143.584 219.91 150.215 218.314C156.842 216.721 162.997 214.112 168.682 210.491C174.364 206.868 179.294 202.488 183.479 197.343C187.661 192.201 190.937 186.42 193.304 180.003C195.673 173.583 196.855 166.82 196.855 159.717C196.855 152.614 195.673 146.483 193.304 141.326C190.937 136.172 187.661 132.09 183.479 129.083C179.294 126.077 174.366 124.173 168.682 123.364C163 122.558 156.842 122.95 150.215 124.543C143.584 126.136 137.432 128.704 131.747 132.243C126.065 135.784 121.154 140.054 117.009 145.063C112.867 150.069 109.611 155.722 107.244 162.016C105.305 167.171 104.16 172.596 103.81 178.294V138.209L65.7703 147.354L52.6182 198.28L52.0246 198.423L36.8554 154.304L0 163.16V251.92L26.2795 245.601L24.9767 195.767V195.77ZM134.883 166.778C135.71 164.199 136.856 161.917 138.314 159.934C139.774 157.954 141.53 156.26 143.582 154.844C145.633 153.433 147.843 152.442 150.212 151.872C152.579 151.302 154.771 151.238 156.781 151.67C158.793 152.109 160.549 152.957 162.049 154.227C163.546 155.498 164.711 157.224 165.541 159.407C166.369 161.589 166.783 164.102 166.783 166.944C166.783 169.785 166.369 172.643 165.541 175.265C164.711 177.889 163.546 180.257 162.049 182.373C160.552 184.489 158.793 186.272 156.781 187.715C154.771 189.158 152.579 190.166 150.212 190.733C147.843 191.303 145.633 191.355 143.582 190.886C141.53 190.42 139.774 189.481 138.314 188.077C136.853 186.674 135.71 184.861 134.883 182.634C134.053 180.412 133.641 177.837 133.641 174.91C133.641 171.982 134.053 169.356 134.883 166.776V166.778Z" fill="#D05033"/>
<path d="M223.603 198.164L222.418 156.075L222.891 155.961L246.092 192.758L274.859 185.843V97.0833L248.104 103.515L249.289 148.237L248.816 148.353L224.903 109.092L196.85 115.837V159.715V204.597L223.603 198.164Z" fill="#D05033"/>
<path d="M274.618 200.69C270.433 197.684 265.505 195.78 259.82 194.971C254.138 194.164 247.981 194.556 241.353 196.149C234.723 197.743 228.571 200.31 222.886 203.849C217.204 207.391 212.293 211.66 208.148 216.667C204.005 221.673 200.749 227.326 198.382 233.62C196.013 239.916 194.831 246.615 194.831 253.718C194.831 260.821 195.983 266.836 198.284 272.067L177.43 277.081V214.023L149.023 220.852V293.534L122.27 227.284L92.3232 234.483L69.8218 300.36C69.8292 300.055 69.8317 299.746 69.8317 299.438C69.8317 294.841 68.9229 291.215 67.1101 288.559C65.2925 285.905 62.9847 283.846 60.1868 282.388C57.384 280.931 54.3275 279.932 51.0124 279.392C47.6997 278.852 44.5422 278.44 41.5424 278.159C38.6238 277.858 36.5131 277.53 35.2102 277.172C33.9097 276.817 33.2595 275.971 33.2595 274.634C33.2595 273.214 33.89 272.037 35.1511 271.108C36.4145 270.178 38.0696 269.468 40.1237 268.974C42.3305 268.444 44.8181 268.493 47.5815 269.125C50.3425 269.756 52.6699 271.098 54.5639 273.15L72.0828 250.008C67.7431 246.79 62.7113 244.74 56.9924 243.86C51.2685 242.98 45.6456 243.204 40.1237 244.531C36.018 245.517 31.8753 247.059 27.6933 249.153C23.5087 251.249 19.7429 253.932 16.3909 257.208C13.0363 260.485 10.2926 264.306 8.16218 268.668C6.03174 273.034 4.96528 277.979 4.96528 283.501C4.96528 287.437 5.55639 290.665 6.74106 293.183C7.92327 295.704 9.52172 297.726 11.5339 299.251C13.5437 300.777 15.8539 301.919 18.4573 302.674C21.0606 303.431 23.7846 303.969 26.6244 304.289C29.5429 304.595 31.9689 304.891 33.9048 305.177C35.8382 305.466 37.3578 305.794 38.4637 306.156C39.5671 306.516 40.3355 306.94 40.7715 307.421C41.205 307.905 41.4217 308.563 41.4217 309.399C41.4217 310.99 40.7715 312.236 39.4686 313.133C38.1682 314.034 36.7249 314.675 35.1486 315.052C31.6758 315.886 28.3016 315.819 25.0284 314.852C21.7527 313.886 19.1272 312.509 17.1568 310.726L0 334.602C2.13044 336.087 4.53427 337.318 7.21887 338.292C9.90347 339.269 12.7629 339.994 15.8022 340.47C18.839 340.946 21.994 341.101 25.2722 340.936C28.5455 340.771 31.8803 340.282 35.2742 339.466C39.5351 338.442 43.7172 336.788 47.8204 334.509C51.9237 332.227 55.6131 329.376 58.8889 325.956C60.2435 324.54 61.4897 323.036 62.6276 321.445L59.3002 331.187L89.1313 324.015L93.2715 309.981L119.906 303.579L124.285 315.563L149.025 309.614L205.251 296.096V282.416C206.165 283.318 207.131 284.157 208.15 284.931C212.293 288.073 217.207 290.088 222.889 290.979C228.57 291.869 234.725 291.519 241.356 289.923C247.983 288.33 254.138 285.72 259.823 282.1C265.505 278.477 270.436 274.097 274.62 268.952C278.802 263.81 282.078 258.031 284.445 251.612C286.814 245.192 287.996 238.429 287.996 231.326C287.996 224.223 286.814 218.092 284.445 212.935C282.078 207.781 278.802 203.699 274.62 200.692L274.618 200.69ZM100.02 285.54L106.887 261.95L113.635 282.268L100.022 285.54H100.02ZM256.685 246.874C255.855 249.498 254.69 251.866 253.193 253.982C251.695 256.098 249.936 257.881 247.924 259.324C245.915 260.766 243.723 261.775 241.356 262.342C238.986 262.912 236.777 262.964 234.725 262.495C232.674 262.029 230.918 261.09 229.457 259.686C227.997 258.283 226.854 256.47 226.026 254.243C225.196 252.021 224.785 249.446 224.785 246.519C224.785 243.591 225.196 240.965 226.026 238.385C226.854 235.805 227.999 233.524 229.457 231.541C230.918 229.56 232.674 227.866 234.725 226.45C236.777 225.04 238.986 224.048 241.356 223.479C243.723 222.909 245.915 222.845 247.924 223.276C249.936 223.715 251.693 224.564 253.193 225.834C254.69 227.104 255.855 228.83 256.685 231.013C257.512 233.196 257.926 235.709 257.926 238.55C257.926 241.391 257.512 244.25 256.685 246.871V246.874Z" fill="#D05033"/>
<path d="M339.247 175.124L340.432 219.846L339.957 219.959L316.046 180.701L287.994 187.446V231.324V276.205L314.746 269.773L313.561 227.683L314.034 227.57L337.235 264.367L366 257.452V168.692L339.247 175.124Z" fill="#D05033"/>
</g>
<defs>
<clipPath id="clip0_29_162">
<rect width="366" height="341" fill="white"/>
</clipPath>
</defs>
</svg>
