<?xml version="1.0" encoding="UTF-8"?>
<svg id="Calque_2" data-name="Calque 2" xmlns="http://www.w3.org/2000/svg" viewBox="0 0 145.24 47.49">
  <defs>
    <style>
      .cls-1 {
        fill: #f8f8f8;
      }
    </style>
  </defs>
  <g id="Calque_1-2" data-name="Calque 1">
    <g>
      <path class="cls-1" d="M44.66.73c2.37,0,3.23.4,3.23,1.91,0,2.18-3.63,2.31-3.63,6.46v34.63c0,2.31-.79,3.1-2.77,3.1s-2.84-1.06-2.84-2.24c0-1.71-.66-2.84-2.18-4.42L10.03,13.92l.07,24.47c0,4.16,3.63,4.16,3.63,6.53,0,1.52-.99,1.85-3.1,1.85h-6.46c-2.44,0-3.23-.46-3.23-1.91,0-2.18,3.56-2.31,3.56-6.46V12.93C4.49,3.83,0,6.73,0,2.77,0,1.19,1.06.66,3.83.66h6.46c1.65,0,2.57.73,3.76,1.85l24.6,24.6V9.1c0-4.16-3.63-4.16-3.63-6.53,0-1.52.99-1.85,3.1-1.85h6.53Z"/>
      <path class="cls-1" d="M51.12,25.86c0-3.96-3.1-3.83-3.1-5.8,0-.99.59-1.52,2.18-2.24,2.64-1.25,8.64-3.23,9.76-3.23,1.19,0,1.65.79,1.65,2.24l-.07,9.04v11.61c0,6,3.23,4.35,3.23,7.52,0,1.52-1.12,1.85-3.04,1.85h-10.62c-2.04,0-3.23-.46-3.23-1.91,0-3.1,3.3-1.45,3.3-7.45l-.07-11.61ZM49.74,7.19c0-3.43,3.76-7.06,7.52-6.99,2.64,0,4.75,1.91,4.75,4.49-.07,3.69-3.96,6.86-7.78,6.86-2.9,0-4.55-2.04-4.49-4.35Z"/>
      <path class="cls-1" d="M97.08,37.86c-1.25,3.89-6.93,9.63-15.96,9.63s-15.83-6.4-15.83-15.57c0-10.22,8.31-17.41,17.22-17.41,8.31,0,12.73,5.08,13.52,10.69.13.99-.4,1.98-1.52,2.51-6.53,3.17-11.08,5.08-17.55,7.59,1.39,2.57,4.09,4.88,8.71,4.88,3.83,0,6.86-1.98,9.24-4.22,1.45-1.39,2.84-.13,2.18,1.91ZM74.85,26.78c0,1.38.26,3.17.59,4.22,3.04-1.06,6.13-2.18,9.04-3.56,1.12-.53,2.24-.92,1.65-2.9-1.06-3.69-3.96-5.87-6.93-5.08-2.77.66-4.35,3.43-4.35,7.32Z"/>
      <path class="cls-1" d="M100.99,11.28c0-3.96-3.1-3.83-3.1-5.8,0-.99.59-1.52,2.18-2.24,2.64-1.25,8.64-3.23,9.7-3.23,1.25,0,1.72.79,1.72,2.24l-.07,9.04v26.19c0,6,3.23,4.35,3.23,7.52,0,1.52-1.12,1.85-3.03,1.85h-10.69c-1.98,0-3.17-.46-3.17-1.91,0-3.1,3.3-1.45,3.3-7.45l-.07-26.19Z"/>
      <path class="cls-1" d="M117.67,44.66c-1.12-2.71-1.91-4.68-2.38-6.73-.4-1.71.07-2.51.86-2.9,1.12-.59,2.31.26,4.09,1.78,3.83,3.56,7.59,6.53,11.61,6.53,1.91,0,2.97-1.12,2.97-2.57,0-2.11-3.23-3.89-9.17-6.46-4.75-2.18-9.3-4.82-9.3-10.36,0-6.53,6.07-9.43,11.21-9.43,3.83,0,6.13.92,8.18.99,1.52,0,1.71-.99,3.03-.99,1.12,0,1.65.66,2.84,2.77.79,1.52,1.12,2.31,1.72,3.83.79,2.11.4,3.1-.53,3.5-1.32.66-2.57-.46-4.62-1.91-2.57-1.78-6-3.89-8.77-3.89-2.31,0-3.3,1.32-3.3,2.51,0,1.98,2.57,3.36,7.65,5.61,7.39,3.36,11.48,6.07,11.48,10.75,0,6.13-5.81,9.83-12.6,9.83-5.61,0-8.05-1.38-9.5-1.38-.92,0-1.32,1.38-2.64,1.38s-1.91-.59-2.84-2.84Z"/>
    </g>
  </g>
</svg>